<svg xmlns="http://www.w3.org/2000/svg" viewBox="0 0 1600 900"><defs><linearGradient id="w" x1="0" x2="1" y1="0" y2="1"><stop offset="0" stop-color="#15253a"/><stop offset="1" stop-color="#080607"/></linearGradient><radialGradient id="l" cx="43%" cy="58%" r="35%"><stop offset="0" stop-color="#c59045" stop-opacity=".75"/><stop offset="1" stop-color="#000" stop-opacity="0"/></radialGradient></defs><rect width="1600" height="900" fill="url(#w)"/><rect x="110" y="80" width="540" height="520" fill="#0e2338" stroke="#2a4258" stroke-width="10"/><path d="M380 80v520M110 330h540" stroke="#2a4258" stroke-width="8"/><g opacity=".5" stroke="#b7c7d0" stroke-width="2"><path d="M170 120l-26 90M260 95l-34 138M420 118l-38 154M560 108l-28 118M610 260l-40 160M220 360l-32 128M475 350l-36 150"/></g><rect x="820" y="120" width="410" height="580" fill="#211711" opacity=".88"/><g fill="#4f3523"><rect x="850" y="165" width="340" height="22"/><rect x="850" y="275" width="340" height="22"/><rect x="850" y="385" width="340" height="22"/><rect x="850" y="495" width="340" height="22"/></g><g opacity=".8"><rect x="875" y="190" width="26" height="84" fill="#6f3035"/><rect x="910" y="198" width="22" height="76" fill="#8b6b36"/><rect x="945" y="180" width="30" height="94" fill="#263c4e"/><rect x="1010" y="298" width="28" height="86" fill="#6f3035"/><rect x="1050" y="305" width="24" height="79" fill="#a98242"/></g><rect x="300" y="610" width="760" height="105" rx="10" fill="#2b1b13"/><rect x="250" y="705" width="850" height="55" fill="#17100d"/><rect x="650" y="505" width="70" height="30" rx="15" fill="#c69248"/><path d="M670 532h30l26 120h-82z" fill="#8e5c2b"/><rect x="1220" y="610" width="260" height="130" rx="28" fill="#130e10"/><rect x="1240" y="585" width="220" height="55" rx="22" fill="#2a1718"/><circle cx="720" cy="525" r="170" fill="url(#l)"/><rect x="0" y="760" width="1600" height="140" fill="#070607"/><circle cx="430" cy="430" r="90" fill="#08090d" opacity=".35"/><circle cx="690" cy="520" r="96" fill="#08090d" opacity=".3"/><circle cx="1030" cy="430" r="90" fill="#08090d" opacity=".34"/></svg>
